<svg xmlns="http://www.w3.org/2000/svg" class="tool-cover-svg" width="960" height="640" viewBox="0 0 960 640"><title>Control — a layered data workspace</title>
  <defs><radialGradient id="debug-aura"><stop stop-color="#c2a9ff" stop-opacity=".27"/><stop offset="1" stop-color="#c2a9ff" stop-opacity="0"/></radialGradient>
    <radialGradient id="debug-floor"><stop stop-color="#c2a9ff" stop-opacity=".16"/><stop offset="1" stop-color="#c2a9ff" stop-opacity="0"/></radialGradient>
    <linearGradient id="debug-glass" x1="0" y1="0" x2="1" y2="1"><stop stop-color="#fff" stop-opacity=".13"/><stop offset=".5" stop-color="#fff" stop-opacity=".02"/><stop offset="1" stop-color="#fff" stop-opacity=".075"/></linearGradient>
    <linearGradient id="debug-edge" x2="1" y2="1"><stop stop-color="#fff" stop-opacity=".7"/><stop offset=".4" stop-color="#c2a9ff" stop-opacity=".12"/><stop offset="1" stop-color="#c2a9ff" stop-opacity=".7"/></linearGradient>
    <linearGradient id="debug-sky" x2="0" y2="1"><stop stop-color="#07171f"/><stop offset=".65" stop-color="#255966"/><stop offset="1" stop-color="#97bdb8"/></linearGradient>
    <radialGradient id="debug-planet" cx=".35" cy=".3"><stop stop-color="#ffdfa3"/><stop offset=".45" stop-color="#eda678"/><stop offset="1" stop-color="#914a42"/></radialGradient>
    <filter id="debug-shadow" x="-.5" y="-.5" width="2" height="2"><feDropShadow dx="0" dy="19" stdDeviation="17" flood-color="#000" flood-opacity=".6"/></filter>
    <filter id="debug-bloom" x="-1" y="-1" width="3" height="3"><feGaussianBlur stdDeviation="8"/></filter>
    <pattern id="debug-grid" width="50" height="50" patternUnits="userSpaceOnUse"><path d="M50 0H0v50" fill="none" stroke="#fff" stroke-opacity=".033"/></pattern>
  </defs><rect x="0" y="0" width="960" height="640" rx="0" fill="#171521" /><rect x="0" y="0" width="960" height="640" rx="0" fill="url(#debug-grid)" />
  <ellipse class="art-aura" cx="530" cy="275" rx="470" ry="400" fill="url(#debug-aura)"/><ellipse cx="500" cy="437" rx="330" ry="106" fill="url(#debug-floor)"/>
  <g fill="#c2a9ff" fill-opacity=".55"><circle class="art-spark" cx="107" cy="226" r="1.6"/><circle class="art-spark" cx="811" cy="119" r="1.8"/><circle class="art-spark" cx="849" cy="442" r="1.3"/></g>
  <path d="M28 82V28h54m796 0h54v54M28 558v54h54m796 0h54v-54" fill="none" stroke="#fff" stroke-opacity=".16"/>
  <g font-family="Manrope, Segoe UI, Arial, sans-serif" font-weight="400"><text x="49" y="65" font-size="12" fill="#c9c4d8" letter-spacing="1.8">03 / GAME DEBUG WORKBENCH</text><rect x="738" y="43" width="169" height="30" rx="15" fill="#ffffff08" stroke="#ffffff20"/><text x="751" y="62" font-size="11" fill="#c2a9ff" letter-spacing="1.5">FIND → CONTROL</text><g fill="none" stroke="#c2a9ff" stroke-opacity=".13"><ellipse cx="490" cy="373" rx="302" ry="110"/>
  <ellipse class="art-orbit" cx="490" cy="373" rx="334" ry="125" stroke-dasharray="3 8"/><path d="M154 373h90m492 0h90M490 207v42m0 246v24"/></g><g class="art-layer art-layer-back"><g class="art-float art-float-back"><g opacity="0.55" transform="translate(171 232) skewY(-13)" filter="url(#debug-shadow)">
    <rect x="5" y="9" width="356" height="164" rx="12" fill="#151623" stroke="#bea2ff40"/><rect x="0" y="0" width="356" height="164" rx="12" fill="#20202ce0" stroke="url(#debug-edge)"/><rect x="1" y="1" width="354" height="162" rx="12" fill="url(#debug-glass)" />
    <path d="M0 34h356" fill="none" stroke="#ffffff18"/><text x="18" y="23" font-size="9" fill="#b5adc9" letter-spacing="1.4">DATA / INDEX</text>
    <circle cx="321" cy="18" r="3" fill="#bca0ef"/><rect x="18" y="50" width="28" height="16" rx="4" fill="#ba9be914" /><text x="25" y="62" font-size="8" fill="#b1a2c9" >01</text><rect x="61" y="54" width="98" height="3" rx="1.5" fill="#dad4e7a3" /><rect x="61" y="62" width="145" height="2" rx="1" fill="#a58bbd35" /><rect x="267" y="54" width="62" height="3" rx="1.5" fill="#b499da44" /><rect x="18" y="80" width="28" height="16" rx="4" fill="#ba9be914" /><text x="25" y="92" font-size="8" fill="#b1a2c9" >02</text><rect x="61" y="84" width="84" height="3" rx="1.5" fill="#dad4e7a3" /><rect x="61" y="92" width="127" height="2" rx="1" fill="#a58bbd35" /><rect x="267" y="84" width="62" height="3" rx="1.5" fill="#b499da44" /><rect x="18" y="110" width="28" height="16" rx="4" fill="#ba9be914" /><text x="25" y="122" font-size="8" fill="#b1a2c9" >03</text><rect x="61" y="114" width="70" height="3" rx="1.5" fill="#dad4e7a3" /><rect x="61" y="122" width="109" height="2" rx="1" fill="#a58bbd35" /><rect x="267" y="114" width="62" height="3" rx="1.5" fill="#b499da44" />
  </g></g></g><g class="art-layer art-layer-side"><g class="art-float art-float-side"><g opacity="0.85" transform="translate(261 262) skewY(-13)" filter="url(#debug-shadow)">
    <rect x="5" y="9" width="356" height="164" rx="12" fill="#151623" stroke="#bea2ff40"/><rect x="0" y="0" width="356" height="164" rx="12" fill="#20202ce0" stroke="url(#debug-edge)"/><rect x="1" y="1" width="354" height="162" rx="12" fill="url(#debug-glass)" />
    <path d="M0 34h356" fill="none" stroke="#ffffff18"/><text x="18" y="23" font-size="9" fill="#b5adc9" letter-spacing="1.4">DATA / INDEX</text>
    <circle cx="321" cy="18" r="3" fill="#bca0ef"/><rect x="18" y="50" width="28" height="16" rx="4" fill="#ba9be914" /><text x="25" y="62" font-size="8" fill="#b1a2c9" >01</text><rect x="61" y="54" width="98" height="3" rx="1.5" fill="#dad4e7a3" /><rect x="61" y="62" width="145" height="2" rx="1" fill="#a58bbd35" /><rect x="267" y="54" width="62" height="3" rx="1.5" fill="#b499da44" /><rect x="18" y="80" width="28" height="16" rx="4" fill="#ba9be914" /><text x="25" y="92" font-size="8" fill="#b1a2c9" >02</text><rect x="61" y="84" width="84" height="3" rx="1.5" fill="#dad4e7a3" /><rect x="61" y="92" width="127" height="2" rx="1" fill="#a58bbd35" /><rect x="267" y="84" width="62" height="3" rx="1.5" fill="#b499da44" /><rect x="18" y="110" width="28" height="16" rx="4" fill="#ba9be914" /><text x="25" y="122" font-size="8" fill="#b1a2c9" >03</text><rect x="61" y="114" width="70" height="3" rx="1.5" fill="#dad4e7a3" /><rect x="61" y="122" width="109" height="2" rx="1" fill="#a58bbd35" /><rect x="267" y="114" width="62" height="3" rx="1.5" fill="#b499da44" />
  </g></g></g><g class="art-layer art-layer-front"><g class="art-float art-float-front"><g opacity="1" transform="translate(351 292) skewY(-13)" filter="url(#debug-shadow)">
    <rect x="5" y="9" width="356" height="164" rx="12" fill="#151623" stroke="#bea2ff40"/><rect x="0" y="0" width="356" height="164" rx="12" fill="#20202ce0" stroke="url(#debug-edge)"/><rect x="1" y="1" width="354" height="162" rx="12" fill="url(#debug-glass)" />
    <path d="M0 34h356" fill="none" stroke="#ffffff18"/><text x="18" y="23" font-size="9" fill="#b5adc9" letter-spacing="1.4">DATA / INDEX</text>
    <circle cx="321" cy="18" r="3" fill="#bca0ef"/><rect x="18" y="50" width="28" height="16" rx="4" fill="#ba9be914" /><text x="25" y="62" font-size="8" fill="#b1a2c9" >01</text><rect x="61" y="54" width="98" height="3" rx="1.5" fill="#dad4e7a3" /><rect x="61" y="62" width="145" height="2" rx="1" fill="#a58bbd35" /><rect x="267" y="54" width="62" height="3" rx="1.5" fill="#b499da44" /><rect x="18" y="80" width="28" height="16" rx="4" fill="#ba9be914" /><text x="25" y="92" font-size="8" fill="#b1a2c9" >02</text><rect x="61" y="84" width="84" height="3" rx="1.5" fill="#dad4e7a3" /><rect x="61" y="92" width="127" height="2" rx="1" fill="#a58bbd35" /><rect x="267" y="84" width="62" height="3" rx="1.5" fill="#b499da44" /><rect x="18" y="110" width="28" height="16" rx="4" fill="#ba9be914" /><text x="25" y="122" font-size="8" fill="#b1a2c9" >03</text><rect x="61" y="114" width="70" height="3" rx="1.5" fill="#dad4e7a3" /><rect x="61" y="122" width="109" height="2" rx="1" fill="#a58bbd35" /><rect x="267" y="114" width="62" height="3" rx="1.5" fill="#b499da44" />
  </g></g></g><g class="art-layer art-layer-badge"><g class="art-float art-float-badge"><g transform="translate(586 139)" filter="url(#debug-shadow)">
  <path d="M0 51 93 0l94 51-94 52Z" fill="url(#debug-glass)" stroke="#d7c6f9" stroke-opacity=".75"/>
  <path d="m0 51 93 52v87L0 139Z" fill="#392a5b9c" stroke="#c8a8ff" stroke-opacity=".45"/>
  <path d="m187 51-94 52v87l94-51Z" fill="#a280df2b" stroke="#c8a8ff" stroke-opacity=".45"/>
  <path d="M47 77v87m93-87v87M0 95l93 52 94-52M47 26l93 51m0-51L47 77" fill="none" stroke="#c4a6fa" stroke-opacity=".25"/>
  <path d="M93 43 110 53 93 63 76 53Z" fill="#e7dbff"/><path d="M76 53 93 63v21L76 74Z" fill="#9172c9"/><path d="M110 53 93 63v21l17-10Z" fill="#c0a3f4"/>
  <circle cx="93" cy="59" r="31" fill="#c4a5ff" fill-opacity=".08"/>
  </g></g></g><rect x="111" y="139" width="203" height="60" rx="9" fill="#2e2436e6" stroke="#c4a5ff4d"/><text x="128" y="162" font-size="9" fill="#c1a7dd" letter-spacing="1.5">QUERY / RESULT</text><text x="128" y="184" font-size="11" fill="#d8cfe7" letter-spacing=".7">SELECT. TUNE. EXECUTE.</text><text x="46" y="573" font-size="84" fill="#f0e9fa" font-weight="600" letter-spacing="-4">CONTROL</text><text x="51" y="601" font-size="11" fill="#b7a4cb" letter-spacing="2.5">QUERY / EDIT / ORCHESTRATE</text><text x="724" y="582" font-size="10" fill="#c6b4de" letter-spacing="2">DATA / ACTION</text></g></svg>